:FULLY-SPECIFIED
:FORCE-ALL-JOINTS-BE-3DOF
:DEGREES
1020
root 0.250165 13.5677 -35.3981 12.3093 -28.1886 -17.7109
lfemur -70.1978 36.1149 -4.17945
ltibia 82.6212 -0 0
lfoot -13.0254 -8.57531 0.00240906
ltoes -5.79586 0 0
rfemur 10.4119 -8.72761 8.57863
rtibia 36.1743 -0 0
rfoot -22.6304 -26.1143 -0.000321443
rtoes -31.5393 0 0
lowerback 10.2501 -0.911167 5.36317
upperback -1.85945 0.00332465 8.25672
thorax -7.7926 -0.0702079 5.83473
lowerneck -4.82875 8.34337 3.4245
upperneck 7.99895 10.9925 -1.04991
head 3.72299 5.50207 -0.393528
lclavicle -2.80783e-14 -7.4743e-14 0
lhumerus 85.7056 -9.77869 27.0806
lradius 97.7862 -0 0
lwrist 10.4603 0 0
lhand -36.2516 31.4791 0.0261825
lfingers 7.12502 -0 0
lthumb -9.35303 61.2741 0.0246049
rclavicle -2.80783e-14 -7.4743e-14 0
rhumerus -77.59 23.0364 -95.028
rradius 112.082 -0 0
rwrist -62.971 0 0
rhand -10.0765 -25.2463 -0.000291533
rfingers 7.12502 -0 0
rthumb 15.91 -54.6129 -0.000310164
1021
root 0.248281 13.5632 -35.39 12.3086 -28.187 -17.6988
lfemur -70.2014 36.1309 -4.19023
ltibia 82.6418 -0 0
lfoot -13.0661 -8.56298 0.002233
ltoes -5.85785 0 0
rfemur 10.4287 -8.72111 8.57063
rtibia 36.1633 -0 0
rfoot -22.6321 -26.1279 -0.000272659
rtoes -31.5186 0 0
lowerback 10.2309 -0.897582 5.34809
upperback -1.86512 0.0169578 8.23508
thorax -7.78786 -0.0631675 5.8166
lowerneck -4.83804 8.34062 3.42191
upperneck 7.99123 10.9878 -1.03986
head 3.72115 5.50001 -0.389865
lclavicle -2.80783e-14 -7.4743e-14 0
lhumerus 85.3492 -9.05278 27.3413
lradius 97.244 -0 0
lwrist 10.1342 0 0
lhand -36.2176 31.2907 0.0210553
lfingers 7.12502 -0 0
lthumb -9.32015 61.0841 0.0197324
rclavicle -2.80783e-14 -7.4743e-14 0
rhumerus -77.5948 23.043 -95.0449
rradius 112.051 -0 0
rwrist -63.0174 0 0
rhand -10.1018 -25.2115 -0.000265012
rfingers 7.12502 -0 0
rthumb 15.8857 -54.58 -0.000279149
1022
root 0.246568 13.5582 -35.3812 12.308 -28.1846 -17.6868
lfemur -70.2023 36.1442 -4.19877
ltibia 82.6551 -0 0
lfoot -13.101 -8.55292 0.00197442
ltoes -5.9152 0 0
rfemur 10.4425 -8.7153 8.56539
rtibia 36.1544 -0 0
rfoot -22.6343 -26.1419 -0.00022167
rtoes -31.4982 0 0
lowerback 10.2127 -0.88404 5.33519
upperback -1.87022 0.0308407 8.21323
thorax -7.78304 -0.0561066 5.79699
lowerneck -4.84628 8.33768 3.4193
upperneck 7.98212 10.9829 -1.03042
head 3.71867 5.49785 -0.386487
lclavicle -2.80783e-14 -7.4743e-14 0
lhumerus 84.9717 -8.39852 27.5977
lradius 96.67 -0 0
lwrist 9.81738 0 0
lhand -36.1734 31.1076 0.0161604
lfingers 7.12502 -0 0
lthumb -9.27745 60.8996 0.0150975
rclavicle -2.80783e-14 -7.4743e-14 0
rhumerus -77.5987 23.0481 -95.0618
rradius 112.02 -0 0
rwrist -63.0658 0 0
rhand -10.1272 -25.1773 -0.000228891
rfingers 7.12502 -0 0
rthumb 15.8611 -54.5477 -0.00023911
1023
root 0.245047 13.5528 -35.3718 12.3075 -28.1814 -17.6749
lfemur -70.2004 36.1547 -4.20495
ltibia 82.661 -0 0
lfoot -13.1301 -8.54525 0.00162712
ltoes -5.96762 0 0
rfemur 10.4532 -8.71023 8.563
rtibia 36.1479 -0 0
rfoot -22.6369 -26.156 -0.000168685
rtoes -31.4779 0 0
lowerback 10.1954 -0.870569 5.32455
upperback -1.87472 0.0449527 8.1912
thorax -7.77813 -0.0490394 5.77587
lowerneck -4.85341 8.33454 3.41667
upperneck 7.97157 10.9779 -1.02162
head 3.71551 5.49557 -0.383409
lclavicle -2.80783e-14 -7.4743e-14 0
lhumerus 84.5723 -7.81967 27.8498
lradius 96.0643 -0 0
lwrist 9.51076 0 0
lhand -36.1188 30.9305 0.0115547
lfingers 7.12502 -0 0
lthumb -9.22468 60.7211 0.0107557
rclavicle -2.80783e-14 -7.4743e-14 0
rhumerus -77.6018 23.0518 -95.0787
rradius 111.988 -0 0
rwrist -63.1161 0 0
rhand -10.1529 -25.1437 -0.000183643
rfingers 7.12502 -0 0
rthumb 15.8364 -54.516 -0.000190513
1024
root 0.243738 13.5468 -35.3616 12.3069 -28.1774 -17.6631
lfemur -70.1957 36.1623 -4.20869
ltibia 82.6592 -0 0
lfoot -13.1528 -8.54005 0.00118548
ltoes -6.01484 0 0
rfemur 10.4606 -8.70592 8.56357
rtibia 36.1438 -0 0
rfoot -22.6401 -26.1705 -0.000113923
rtoes -31.4579 0 0
lowerback 10.1792 -0.857197 5.31629
upperback -1.87859 0.0592732 8.16904
thorax -7.77315 -0.0419799 5.75325
lowerneck -4.85938 8.33122 3.41402
upperneck 7.95956 10.9727 -1.01351
head 3.71167 5.4932 -0.380648
lclavicle -2.80783e-14 -7.4743e-14 0
lhumerus 84.1505 -7.32002 28.0977
lradius 95.427 -0 0
lwrist 9.21534 0 0
lhand -36.0535 30.7598 0.00729261
lfingers 7.12502 -0 0
lthumb -9.16162 60.5493 0.00675982
rclavicle -2.80783e-14 -7.4743e-14 0
rhumerus -77.6041 23.0538 -95.0955
rradius 111.956 -0 0
rwrist -63.1682 0 0
rhand -10.1787 -25.1108 -0.000129884
rfingers 7.12502 -0 0
rthumb 15.8116 -54.4851 -0.000133956
1025
root 0.242661 13.5404 -35.3507 12.3064 -28.1725 -17.6515
lfemur -70.188 36.1669 -4.20988
ltibia 82.6493 -0 0
lfoot -13.1691 -8.53742 0.000644509
ltoes -6.05657 0 0
rfemur 10.4646 -8.70242 8.5672
rtibia 36.1422 -0 0
rfoot -22.6437 -26.1851 -5.76151e-05
rtoes -31.4383 0 0
lowerback 10.1642 -0.843954 5.3105
upperback -1.8818 0.0737816 8.14678
thorax -7.76811 -0.0349423 5.72912
lowerneck -4.86414 8.3277 3.41137
upperneck 7.94607 10.9673 -1.00613
head 3.70713 5.49071 -0.37822
lclavicle -2.80783e-14 -7.4743e-14 0
lhumerus 83.7054 -6.90334 28.3415
lradius 94.7583 -0 0
lwrist 8.9321 0 0
lhand -35.9774 30.5961 0.00342533
lfingers 7.12502 -0 0
lthumb -9.08802 60.3847 0.00315937
rclavicle -2.80783e-14 -7.4743e-14 0
rhumerus -77.6054 23.0542 -95.1123
rradius 111.923 -0 0
rwrist -63.2221 0 0
rhand -10.2046 -25.0788 -6.83713e-05
rfingers 7.12502 -0 0
rthumb 15.7866 -54.4551 -7.01669e-05
1026
root 0.241835 13.5333 -35.339 372.306 -28.1668 342.36
lfemur -70.1772 36.1683 -4.20844
ltibia 82.6312 0 0
lfoot -13.1786 -8.53747 0
ltoes -6.09254 0 0
rfemur 10.4651 -8.69976 8.57401
rtibia 36.1431 0 0
rfoot -22.6479 -26.2 0
rtoes -31.419 0 0
lowerback 10.1503 -0.830868 5.30728
upperback -1.88432 0.0884574 8.12446
thorax -7.76301 -0.0279407 5.70346
lowerneck -4.86763 8.32399 3.40872
upperneck 7.93106 10.9617 -0.999513
head 3.70187 5.48813 -0.376144
lclavicle -5.7573e-14 1.55052e-14 0
lhumerus 83.2364 -6.57342 28.5815
lradius 94.0584 0 0
lwrist 8.66203 0 0
lhand -35.89 30.44 0
lfingers 7.12502 0 0
lthumb -9.00363 60.2279 0
rclavicle -5.7573e-14 1.55052e-14 0
rhumerus -77.6058 23.0529 -95.1289
rradius 111.89 0 0
rwrist -63.2778 0 0
rhand -10.2306 -25.0477 0
rfingers 7.12502 0 0
rthumb 15.7616 -54.4259 0
1027
root 0.240541 13.5255 -35.3299 12.3149 -28.1762 -17.6218
lfemur -70.2035 36.163 -4.22667
ltibia 82.7012 -0 0
lfoot -13.2525 -8.37925 -0.0031342
ltoes -6.34872 0 0
rfemur 10.4705 -8.69788 8.5361
rtibia 36.1357 -0 0
rfoot -22.622 -26.2245 -0.000344916
rtoes -31.4503 0 0
lowerback 10.1585 -0.81902 5.28038
upperback -1.88395 0.100604 8.10337
thorax -7.76768 -0.0210676 5.69344
lowerneck -4.88189 8.32011 3.40185
upperneck 7.91669 10.9556 -0.989754
head 3.69831 5.48522 -0.371971
lclavicle -5.7573e-14 1.55052e-14 0
lhumerus 83.2651 -5.92429 28.7368
lradius 93.9345 -0 0
lwrist 8.56921 0 0
lhand -35.9126 30.3738 -0.00188832
lfingers 7.12502 -0 0
lthumb -9.02546 60.1609 -0.00184851
rclavicle -5.7573e-14 1.55052e-14 0
rhumerus -77.6029 23.0542 -95.1388
rradius 111.871 -0 0
rwrist -63.3203 0 0
rhand -10.2275 -25.0554 -6.90169e-05
rfingers 7.12502 -0 0
rthumb 15.7646 -54.4334 -6.41812e-05
1028
root 0.238106 13.5167 -35.3265 12.3251 -28.1863 -17.6019
lfemur -70.2309 36.1541 -4.24492
ltibia 82.7735 -0 0
lfoot -13.3294 -8.20291 -0.00651799
ltoes -6.63129 0 0
rfemur 10.4735 -8.69664 8.49585
rtibia 36.1296 -0 0
rfoot -22.593 -26.2516 -0.000722239
rtoes -31.4869 0 0
lowerback 10.1694 -0.806365 5.25248
upperback -1.8828 0.113813 8.0805
thorax -7.77314 -0.0136564 5.6819
lowerneck -4.89668 8.31571 3.3942
upperneck 7.89977 10.9487 -0.979726
head 3.69386 5.48195 -0.36767
lclavicle -5.7573e-14 1.55052e-14 0
lhumerus 83.2958 -5.28633 28.9015
lradius 93.7979 -0 0
lwrist 8.48861 0 0
lhand -35.932 30.313 -0.00368679
lfingers 7.12502 -0 0
lthumb -9.04416 60.0995 -0.00360857
rclavicle -5.7573e-14 1.55052e-14 0
rhumerus -77.5988 23.0543 -95.1492
rradius 111.852 -0 0
rwrist -63.3673 0 0
rhand -10.2228 -25.0664 -0.000156551
rfingers 7.12502 -0 0
rthumb 15.7691 -54.444 -0.000145536
1029
root 0.234623 13.5071 -35.3284 12.3364 -28.197 -17.5804
lfemur -70.2593 36.1416 -4.26316
ltibia 82.8479 -0 0
lfoot -13.4091 -8.00941 -0.0100802
ltoes -6.93878 0 0
rfemur 10.474 -8.69603 8.4534
rtibia 36.1249 -0 0
rfoot -22.5611 -26.2813 -0.00112561
rtoes -31.5285 0 0
lowerback 10.183 -0.792954 5.22368
upperback -1.88088 0.128025 8.05597
thorax -7.77935 -0.0057402 5.66891
lowerneck -4.91197 8.31083 3.38582
upperneck 7.8804 10.9412 -0.969456
head 3.68858 5.47835 -0.363252
lclavicle -5.7573e-14 1.55052e-14 0
lhumerus 83.3286 -4.66035 29.075
lradius 93.6493 -0 0
lwrist 8.41996 0 0
lhand -35.9482 30.2575 -0.00538824
lfingers 7.12502 -0 0
lthumb -9.05979 60.0436 -0.00527321
rclavicle -5.7573e-14 1.55052e-14 0
rhumerus -77.5935 23.0531 -95.1599
rradius 111.831 -0 0
rwrist -63.4188 0 0
rhand -10.2167 -25.0805 -0.000260954
rfingers 7.12502 -0 0
rthumb 15.775 -54.4576 -0.000242536
1030
root 0.230184 13.4968 -35.3351 12.3488 -28.2083 -17.5574
lfemur -70.2886 36.1258 -4.28134
ltibia 82.9243 -0 0
lfoot -13.4912 -7.79973 -0.0137512
ltoes -7.26976 0 0
rfemur 10.4721 -8.69602 8.40892
rtibia 36.1214 -0 0
rfoot -22.5265 -26.3134 -0.00154858
rtoes -31.5749 0 0
lowerback 10.1992 -0.778835 5.19405
upperback -1.87824 0.143177 8.02987
thorax -7.78627 0.00264781 5.65455
lowerneck -4.92771 8.30549 3.37675
upperneck 7.85871 10.9331 -0.958971
head 3.6825 5.47444 -0.358732
lclavicle -5.7573e-14 1.55052e-14 0
lhumerus 83.3633 -4.04714 29.2567
lradius 93.4894 -0 0
lwrist 8.36296 0 0
lhand -35.9613 30.2073 -0.00698666
lfingers 7.12502 -0 0
lthumb -9.07245 59.993 -0.00683653
rclavicle -5.7573e-14 1.55052e-14 0
rhumerus -77.587 23.0506 -95.171
rradius 111.809 -0 0
rwrist -63.4743 0 0
rhand -10.2092 -25.0975 -0.000380392
rfingers 7.12502 -0 0
rthumb 15.7822 -54.474 -0.000353477
